<?xml version="1.0" encoding="utf-8"?>
<!-- Generator: Adobe Illustrator 17.0.0, SVG Export Plug-In . SVG Version: 6.00 Build 0)  -->
<!DOCTYPE svg PUBLIC "-//W3C//DTD SVG 1.1//EN" "http://www.w3.org/Graphics/SVG/1.1/DTD/svg11.dtd">
<svg version="1.1" id="Ebene_1" xmlns="http://www.w3.org/2000/svg" xmlns:xlink="http://www.w3.org/1999/xlink" x="0px" y="0px"
	 width="90px" height="30px" viewBox="0 0 90 30" enable-background="new 0 0 90 30" xml:space="preserve">
<g>
	<path fill="#2E3032" d="M0.013,27.643V10.252h5.142v17.391C5.155,27.643,0.013,27.643,0.013,27.643z"/>
	<path fill="#2E3032" d="M19.689,27.643h-6.57L7.655,10.252h5.214l3.535,12.32l3.535-12.32h5.214L19.689,27.643z"/>
	<path fill="#2E3032" d="M34.284,28c-1.548,0-2.827-0.196-3.839-0.589c-1.012-0.393-1.816-0.922-2.41-1.589
		c-0.596-0.666-1.012-1.416-1.25-2.25c-0.238-0.833-0.357-1.702-0.357-2.607V16.93c0-0.88,0.119-1.743,0.357-2.589
		c0.238-0.844,0.654-1.601,1.25-2.268c0.595-0.666,1.398-1.196,2.41-1.589c1.012-0.392,2.291-0.589,3.839-0.589
		c1.547,0,2.827,0.196,3.839,0.589c1.011,0.393,1.815,0.923,2.41,1.589c0.594,0.667,1.012,1.423,1.25,2.268
		c0.238,0.846,0.357,1.709,0.357,2.589v4.035c0,0.905-0.119,1.774-0.357,2.607s-0.655,1.583-1.25,2.25
		c-0.596,0.667-1.399,1.196-2.41,1.589C37.111,27.804,35.831,28,34.284,28z M34.284,23.679c0.928,0,1.612-0.22,2.053-0.661
		c0.44-0.44,0.66-1.077,0.66-1.911v-4.321c0-0.833-0.22-1.47-0.66-1.911c-0.441-0.44-1.125-0.661-2.053-0.661
		s-1.613,0.221-2.053,0.661c-0.441,0.441-0.661,1.078-0.661,1.911v4.321c0,0.834,0.22,1.471,0.661,1.911
		C32.671,23.459,33.356,23.679,34.284,23.679z"/>
	<path fill="#2E3032" d="M44.896,27.643V3.931l5.142-1.499v25.211C50.038,27.643,44.896,27.643,44.896,27.643z M55.144,10.252h5.499
		l-4.571,8.642l4.785,8.749h-5.499l-4.642-8.749L55.144,10.252z"/>
	<path fill="#2E3032" d="M67.135,20.751v0.5c0,1,0.226,1.673,0.678,2.018s1.273,0.518,2.464,0.518c0.809,0,1.702-0.065,2.678-0.196
		c0.976-0.13,1.844-0.315,2.607-0.554l0.75,3.857c-0.786,0.286-1.767,0.542-2.946,0.768C72.188,27.887,70.992,28,69.778,28
		c-1.405,0-2.601-0.167-3.589-0.5s-1.792-0.809-2.41-1.429c-0.619-0.618-1.071-1.362-1.357-2.232
		c-0.286-0.869-0.429-1.839-0.429-2.91v-4.071c0-0.928,0.119-1.815,0.357-2.66c0.238-0.845,0.643-1.589,1.214-2.232
		c0.571-0.643,1.333-1.149,2.286-1.518c0.952-0.369,2.154-0.553,3.607-0.553c1.452,0,2.63,0.196,3.535,0.589
		c0.904,0.393,1.618,0.923,2.142,1.589c0.524,0.667,0.881,1.435,1.071,2.304c0.19,0.869,0.286,1.779,0.286,2.732v3.642H67.135z
		 M71.635,16.144c0-0.309-0.03-0.595-0.089-0.857c-0.06-0.261-0.167-0.494-0.321-0.696c-0.155-0.202-0.369-0.363-0.643-0.482
		c-0.274-0.119-0.637-0.178-1.089-0.178c-0.905,0-1.524,0.214-1.857,0.643c-0.333,0.428-0.5,0.952-0.5,1.571v0.75h4.499
		C71.635,16.895,71.635,16.144,71.635,16.144z"/>
</g>
<g>
	<path fill="#2E3032" d="M78.024,8.854c-0.2,0.079-0.402,0.119-0.606,0.119c-0.258,0-0.489-0.048-0.693-0.143
		c-0.203-0.095-0.376-0.224-0.519-0.385c-0.142-0.162-0.25-0.348-0.324-0.558c-0.075-0.21-0.112-0.428-0.112-0.655
		c0-0.252,0.035-0.492,0.104-0.72s0.173-0.427,0.311-0.599s0.309-0.308,0.514-0.41c0.205-0.102,0.445-0.153,0.72-0.153
		c0.188,0,0.364,0.022,0.531,0.065c0.166,0.043,0.315,0.112,0.446,0.206s0.24,0.212,0.329,0.356
		c0.089,0.144,0.149,0.317,0.182,0.521h-0.46c-0.022-0.132-0.064-0.246-0.126-0.342c-0.062-0.095-0.138-0.174-0.229-0.235
		c-0.09-0.062-0.192-0.107-0.308-0.138c-0.114-0.031-0.236-0.046-0.366-0.046c-0.21,0-0.39,0.042-0.54,0.126
		s-0.273,0.194-0.368,0.332c-0.096,0.137-0.166,0.294-0.211,0.47c-0.046,0.176-0.068,0.356-0.068,0.541
		c0,0.181,0.026,0.354,0.078,0.521c0.051,0.167,0.127,0.313,0.228,0.441c0.1,0.127,0.224,0.229,0.371,0.305
		c0.146,0.076,0.317,0.114,0.511,0.114c0.182,0,0.341-0.029,0.48-0.087s0.256-0.138,0.352-0.24c0.095-0.102,0.167-0.221,0.216-0.358
		c0.048-0.138,0.069-0.286,0.062-0.444h-1.105V7.072h1.518v1.823h-0.291L78.53,8.463C78.393,8.645,78.225,8.774,78.024,8.854z"/>
	<path fill="#2E3032" d="M79.939,6.389v0.368h0.01c0.188-0.284,0.457-0.426,0.81-0.426c0.155,0,0.296,0.032,0.422,0.097
		c0.126,0.065,0.215,0.175,0.267,0.33c0.084-0.136,0.194-0.241,0.332-0.315c0.137-0.074,0.288-0.111,0.453-0.111
		c0.126,0,0.24,0.014,0.342,0.041s0.189,0.07,0.262,0.128c0.073,0.058,0.129,0.133,0.17,0.226c0.04,0.092,0.061,0.203,0.061,0.332
		v1.837h-0.412V7.251c0-0.078-0.007-0.15-0.02-0.218s-0.037-0.126-0.072-0.177c-0.036-0.05-0.085-0.09-0.148-0.119
		c-0.062-0.029-0.145-0.044-0.245-0.044c-0.203,0-0.363,0.058-0.479,0.175c-0.116,0.116-0.175,0.271-0.175,0.465v1.561h-0.412V7.251
		c0-0.081-0.007-0.155-0.021-0.223s-0.04-0.126-0.075-0.177s-0.083-0.089-0.143-0.116c-0.061-0.027-0.137-0.042-0.23-0.042
		c-0.12,0-0.223,0.024-0.308,0.073c-0.086,0.049-0.155,0.107-0.209,0.175S80.024,7.08,80,7.152s-0.036,0.133-0.036,0.182v1.561
		h-0.412V6.389H79.939z"/>
	<path fill="#2E3032" d="M84.114,5.434v1.294h0.01c0.067-0.139,0.174-0.24,0.319-0.303s0.306-0.094,0.48-0.094
		c0.193,0,0.362,0.036,0.506,0.106c0.145,0.071,0.264,0.167,0.359,0.289c0.095,0.121,0.167,0.261,0.216,0.419
		c0.048,0.158,0.072,0.326,0.072,0.504s-0.023,0.346-0.07,0.504s-0.118,0.296-0.213,0.415c-0.096,0.118-0.215,0.211-0.359,0.279
		c-0.144,0.068-0.311,0.102-0.501,0.102c-0.062,0-0.131-0.006-0.206-0.019c-0.076-0.013-0.151-0.034-0.226-0.063
		c-0.074-0.029-0.145-0.068-0.211-0.119c-0.066-0.05-0.122-0.112-0.167-0.187h-0.01v0.334h-0.412V5.434H84.114z M85.595,7.278
		c-0.03-0.112-0.077-0.211-0.141-0.298c-0.062-0.087-0.144-0.157-0.242-0.208s-0.214-0.078-0.347-0.078
		c-0.139,0-0.257,0.028-0.354,0.083c-0.098,0.055-0.177,0.127-0.238,0.216s-0.105,0.19-0.133,0.303
		c-0.027,0.112-0.04,0.227-0.04,0.343c0,0.123,0.015,0.242,0.043,0.356c0.029,0.115,0.075,0.216,0.139,0.303
		c0.062,0.087,0.145,0.157,0.245,0.211c0.1,0.053,0.221,0.08,0.363,0.08s0.261-0.027,0.356-0.082
		c0.095-0.055,0.172-0.128,0.23-0.218c0.058-0.09,0.1-0.194,0.126-0.311c0.025-0.116,0.038-0.236,0.038-0.358
		C85.641,7.503,85.626,7.39,85.595,7.278z"/>
	<path fill="#2E3032" d="M87.09,5.434v1.488h1.822V5.434h0.461v3.461h-0.461V7.31H87.09v1.585h-0.461V5.434H87.09z"/>
</g>
</svg>
